<?xml version="1.0" encoding="utf-8"?>
<!-- Generator: Adobe Illustrator 23.0.3, SVG Export Plug-In . SVG Version: 6.00 Build 0)  -->
<svg version="1.1" id="Layer_1" xmlns="http://www.w3.org/2000/svg" xmlns:xlink="http://www.w3.org/1999/xlink" x="0px" y="0px"
	 viewBox="0 0 24 24" style="enable-background:new 0 0 24 24;" xml:space="preserve">
<style type="text/css">
	.st0{fill:url(#SVGID_1_);}
	.st1{fill:url(#SVGID_2_);}
	.st2{fill:url(#SVGID_3_);}
	.st3{fill:url(#SVGID_4_);}
	.st4{fill:url(#SVGID_5_);}
	.st5{fill:url(#SVGID_6_);}
	.st6{fill:url(#SVGID_7_);}
	.st7{fill:url(#SVGID_8_);}
	.st8{fill:url(#SVGID_9_);}
	.st9{fill:url(#SVGID_10_);}
	.st10{fill:url(#SVGID_11_);}
	.st11{fill:url(#SVGID_12_);}
	.st12{fill:url(#SVGID_13_);}
	.st13{fill:url(#SVGID_14_);}
	.st14{fill:url(#SVGID_15_);}
	.st15{fill:url(#SVGID_16_);}
	.st16{fill:url(#SVGID_17_);}
	.st17{fill:url(#SVGID_18_);}
	.st18{fill:url(#SVGID_19_);}
	.st19{fill:url(#SVGID_20_);}
	.st20{fill:url(#SVGID_21_);}
	.st21{fill:url(#SVGID_22_);}
	.st22{fill:url(#SVGID_23_);}
	.st23{fill:url(#SVGID_24_);}
	.st24{fill:url(#SVGID_25_);}
	.st25{fill:url(#SVGID_26_);}
	.st26{fill:url(#SVGID_27_);}
	.st27{fill:url(#SVGID_28_);}
	.st28{fill:url(#SVGID_29_);}
	.st29{fill:url(#SVGID_30_);}
	.st30{fill:url(#SVGID_31_);}
	.st31{fill:url(#SVGID_32_);}
	.st32{fill:url(#SVGID_33_);}
	.st33{fill:url(#SVGID_34_);}
	.st34{fill:url(#Shape_2_);}
	.st35{fill:url(#SVGID_35_);}
	.st36{fill:url(#SVGID_36_);}
	.st37{fill:url(#SVGID_37_);}
	.st38{fill:url(#SVGID_38_);}
	.st39{fill:url(#SVGID_39_);}
	.st40{fill:url(#SVGID_40_);}
	.st41{fill:url(#SVGID_41_);}
	.st42{fill:url(#SVGID_42_);}
	.st43{fill:url(#SVGID_43_);}
	.st44{fill:url(#SVGID_44_);}
	.st45{fill:url(#SVGID_45_);}
	.st46{fill:url(#SVGID_46_);}
	.st47{fill:url(#SVGID_47_);}
	.st48{fill:url(#SVGID_48_);}
	.st49{fill:url(#SVGID_49_);}
</style>
<linearGradient id="SVGID_1_" gradientUnits="userSpaceOnUse" x1="2.1325" y1="12" x2="22.065" y2="12">
	<stop  offset="0" style="stop-color:#2183BF"/>
	<stop  offset="1" style="stop-color:#19086D"/>
</linearGradient>
<path class="st0" d="M21.6,16.7l-2.5-2.5c-0.7-0.7-1.8-0.7-2.5,0l-1.1,1.1c-0.5,0.5-1.4,0.5-1.9,0l-4.9-4.9c-0.5-0.5-0.5-1.4,0-1.9
	c0.2-0.2,0.7-0.7,1.1-1.1c0.7-0.7,0.7-1.8,0-2.5L7.4,2.5c-0.7-0.7-1.8-0.7-2.5,0C4.4,3,4.2,3.2,4,3.4c-2.5,2.5-2.5,6.5,0,8.9
	l7.7,7.7c2.5,2.5,6.5,2.5,8.9,0l0.9-0.9C22.2,18.5,22.2,17.4,21.6,16.7z M5.7,3.4c0.2-0.2,0.6-0.2,0.8,0L9,5.8
	c0.2,0.2,0.2,0.6,0,0.8L8.6,7.1L5.3,3.8L5.7,3.4z M12.5,19.3l-7.7-7.7c-1.9-1.9-2-4.9-0.3-6.9l3.3,3.3c-0.9,1-0.8,2.5,0.1,3.4
	l4.9,4.9c0,0,0,0,0,0c0.9,0.9,2.4,1,3.4,0.1l3.3,3.3C17.4,21.3,14.5,21.2,12.5,19.3z M20.7,18.4l-0.4,0.4L17,15.5l0.4-0.4
	c0.2-0.2,0.6-0.2,0.8,0l2.5,2.5C21,17.8,21,18.2,20.7,18.4z"/>
</svg>
