<?xml version="1.0" encoding="UTF-8" standalone="no"?> <svg id="Layer_1" data-name="Layer 1" xmlns="http://www.w3.org/2000/svg" viewBox="0 0 128 128"><defs><style>.cls-1{fill:#3b4551;}</style></defs><title>a</title><path class="cls-1" d="M123.8816,103.27485c-1.80837-6.6312-5.13013-10.26528-11.75445-12.30931-6.03428-2.02321-24.65058-8.56408-30.03481-10.65782C78.44559,87.10855,73.09552,93.71094,64,99.87711c-9.09556-6.16617-14.44572-12.76857-18.09246-19.5694C40.52334,82.40146,21.907,88.94233,15.87277,90.96554c-6.62432,2.044-9.94608,5.67811-11.75445,12.30931-2.04582,7.50229-2.41176,15.50411-2.41176,23.243H126.29344C126.29344,118.779,125.92742,110.77714,123.8816,103.27485Zm-13.68282,9.75334H92.9774a2.87024,2.87024,0,0,1,0-5.74049h17.22138a2.87024,2.87024,0,0,1,0,5.74049Z"/><path class="cls-1" d="M60.53993,74.27556c1.12782.0696,6.43277.09748,7.83908-.08354,15.63634-2.019,24.3109-29.47656,24.3109-44.013a28.6899,28.6899,0,1,0-57.37981,0C35.3101,44.99388,44.31881,73.24522,60.53993,74.27556Zm1.11388-53.18874a2.77388,2.77388,0,0,1,.98862.195c.16708.08354.32022.20889.45951.29243a1.98512,1.98512,0,0,1,.37588.26455,1.74834,1.74834,0,0,1,.27849.37588,1.88758,1.88758,0,0,1,.30637.45951,2.73063,2.73063,0,0,1,.23668,1.05822,2.63165,2.63165,0,0,1-5.26322,0A2.49223,2.49223,0,0,1,61.65381,21.08682ZM56.02864,46.19138,57.797,32.40684a2.47024,2.47024,0,0,1,1.01641-1.75441,2.37475,2.37475,0,0,1,1.90755-.51517,2.57108,2.57108,0,0,1,1.75441.97468,2.827,2.827,0,0,1,.543,1.94936L61.264,46.69262a2.747,2.747,0,0,0,.04173.27849A2.716,2.716,0,0,0,62.712,49.00392a3.586,3.586,0,0,0,3.06324.20889l2.5898-1.07216a2.66711,2.66711,0,0,1,2.019,0,2.62883,2.62883,0,0,1,1.42025,1.42025,2.76719,2.76719,0,0,1,0,2.005A2.70066,2.70066,0,0,1,70.384,53l-2.60373,1.07216a8.7396,8.7396,0,0,1-7.68594-.51517,7.925,7.925,0,0,1-3.99611-5.86193,6.74325,6.74325,0,0,1-.09748-1.16955Z"/></svg>